<mxfile host="app.diagrams.net" modified="2021-03-10T09:24:31.341Z" agent="5.0 (Windows NT 10.0; Win64; x64) AppleWebKit/537.36 (KHTML, like Gecko) Chrome/89.0.4389.82 Safari/537.36" etag="yhCbVzFCwwLuhfnbdzr5" version="14.4.3" type="github">
  <diagram id="TOtBnsWWQq2DDUxLwHkW" name="第 1 页">
    <mxGraphModel dx="1730" dy="2082" grid="1" gridSize="10" guides="1" tooltips="1" connect="1" arrows="1" fold="1" page="1" pageScale="1" pageWidth="827" pageHeight="1169" math="0" shadow="0">
      <root>
        <mxCell id="0" />
        <mxCell id="1" parent="0" />
        <mxCell id="BK7y1zI5hKH5JpizI_Pc-1" value="" style="rounded=1;whiteSpace=wrap;html=1;" vertex="1" parent="1">
          <mxGeometry x="50" y="160.5" width="120" height="60" as="geometry" />
        </mxCell>
        <mxCell id="BK7y1zI5hKH5JpizI_Pc-14" value="" style="edgeStyle=orthogonalEdgeStyle;rounded=0;orthogonalLoop=1;jettySize=auto;html=1;fontSize=29;" edge="1" parent="1">
          <mxGeometry relative="1" as="geometry">
            <mxPoint x="180" y="190" as="sourcePoint" />
            <mxPoint x="380" y="190" as="targetPoint" />
          </mxGeometry>
        </mxCell>
        <mxCell id="BK7y1zI5hKH5JpizI_Pc-2" value="&lt;font style=&quot;font-size: 29px&quot;&gt;SenA1&lt;/font&gt;" style="text;html=1;resizable=0;autosize=1;align=center;verticalAlign=middle;points=[];rounded=0;fontSize=29;" vertex="1" parent="1">
          <mxGeometry x="60" y="170.5" width="100" height="40" as="geometry" />
        </mxCell>
        <mxCell id="BK7y1zI5hKH5JpizI_Pc-16" value="Orginal Sentences" style="text;html=1;align=center;verticalAlign=middle;resizable=0;points=[];autosize=1;fontSize=19;" vertex="1" parent="1">
          <mxGeometry x="25" y="95" width="170" height="30" as="geometry" />
        </mxCell>
        <mxCell id="BK7y1zI5hKH5JpizI_Pc-17" value="Augmented Sentences" style="text;html=1;align=center;verticalAlign=middle;resizable=0;points=[];autosize=1;fontSize=19;" vertex="1" parent="1">
          <mxGeometry x="371" width="210" height="30" as="geometry" />
        </mxCell>
        <mxCell id="BK7y1zI5hKH5JpizI_Pc-20" value="augmented technologies" style="text;html=1;align=center;verticalAlign=middle;resizable=0;points=[];autosize=1;fontSize=16;" vertex="1" parent="1">
          <mxGeometry x="180" y="165.5" width="190" height="20" as="geometry" />
        </mxCell>
        <mxCell id="BK7y1zI5hKH5JpizI_Pc-54" value="" style="endArrow=classic;html=1;" edge="1" parent="1">
          <mxGeometry width="50" height="50" relative="1" as="geometry">
            <mxPoint x="476.41" y="370" as="sourcePoint" />
            <mxPoint x="476.82" y="440" as="targetPoint" />
            <Array as="points">
              <mxPoint x="476.41" y="390" />
            </Array>
          </mxGeometry>
        </mxCell>
        <mxCell id="BK7y1zI5hKH5JpizI_Pc-61" value="Selected Sentences" style="text;html=1;align=center;verticalAlign=middle;resizable=0;points=[];autosize=1;fontSize=19;" vertex="1" parent="1">
          <mxGeometry x="386" y="460" width="180" height="30" as="geometry" />
        </mxCell>
        <mxCell id="BK7y1zI5hKH5JpizI_Pc-64" value="" style="endArrow=classic;html=1;" edge="1" parent="1">
          <mxGeometry width="50" height="50" relative="1" as="geometry">
            <mxPoint x="790" y="636.41" as="sourcePoint" />
            <mxPoint x="860" y="636.41" as="targetPoint" />
          </mxGeometry>
        </mxCell>
        <mxCell id="BK7y1zI5hKH5JpizI_Pc-65" value="&lt;font style=&quot;font-size: 29px&quot;&gt;Model&lt;/font&gt;" style="ellipse;whiteSpace=wrap;html=1;rounded=0;sketch=0;" vertex="1" parent="1">
          <mxGeometry x="880" y="597" width="120" height="80" as="geometry" />
        </mxCell>
        <mxCell id="BK7y1zI5hKH5JpizI_Pc-66" value="" style="rounded=1;whiteSpace=wrap;html=1;" vertex="1" parent="1">
          <mxGeometry x="625" y="607" width="120" height="60" as="geometry" />
        </mxCell>
        <mxCell id="BK7y1zI5hKH5JpizI_Pc-67" value="&lt;font style=&quot;font-size: 29px&quot;&gt;SenA1&lt;/font&gt;" style="text;html=1;resizable=0;autosize=1;align=center;verticalAlign=middle;points=[];rounded=0;fontSize=29;" vertex="1" parent="1">
          <mxGeometry x="635" y="617" width="100" height="40" as="geometry" />
        </mxCell>
        <mxCell id="BK7y1zI5hKH5JpizI_Pc-68" value="Orginal Sentences" style="text;html=1;align=center;verticalAlign=middle;resizable=0;points=[];autosize=1;fontSize=19;" vertex="1" parent="1">
          <mxGeometry x="600" y="541.5" width="170" height="30" as="geometry" />
        </mxCell>
        <mxCell id="BK7y1zI5hKH5JpizI_Pc-69" value="&lt;font style=&quot;font-size: 29px&quot;&gt;+&lt;/font&gt;" style="text;html=1;align=center;verticalAlign=middle;resizable=0;points=[];autosize=1;" vertex="1" parent="1">
          <mxGeometry x="566" y="627" width="30" height="20" as="geometry" />
        </mxCell>
        <mxCell id="BK7y1zI5hKH5JpizI_Pc-86" value="" style="rounded=0;whiteSpace=wrap;html=1;sketch=0;" vertex="1" parent="1">
          <mxGeometry x="397" y="50" width="160" height="305" as="geometry" />
        </mxCell>
        <mxCell id="BK7y1zI5hKH5JpizI_Pc-87" value="" style="rounded=1;whiteSpace=wrap;html=1;" vertex="1" parent="1">
          <mxGeometry x="417" y="162" width="120" height="60" as="geometry" />
        </mxCell>
        <mxCell id="BK7y1zI5hKH5JpizI_Pc-88" value="&lt;font style=&quot;font-size: 29px&quot;&gt;SenB2&lt;/font&gt;" style="text;html=1;resizable=0;autosize=1;align=center;verticalAlign=middle;points=[];fillColor=none;strokeColor=none;rounded=0;fontSize=29;" vertex="1" parent="1">
          <mxGeometry x="427" y="172" width="100" height="40" as="geometry" />
        </mxCell>
        <mxCell id="BK7y1zI5hKH5JpizI_Pc-89" value="" style="rounded=1;whiteSpace=wrap;html=1;" vertex="1" parent="1">
          <mxGeometry x="417" y="80" width="120" height="60" as="geometry" />
        </mxCell>
        <mxCell id="BK7y1zI5hKH5JpizI_Pc-90" value="&lt;font style=&quot;font-size: 29px&quot;&gt;SenB1&lt;/font&gt;" style="text;html=1;resizable=0;autosize=1;align=center;verticalAlign=middle;points=[];fillColor=none;strokeColor=none;rounded=0;fontSize=29;" vertex="1" parent="1">
          <mxGeometry x="427" y="90" width="100" height="40" as="geometry" />
        </mxCell>
        <mxCell id="BK7y1zI5hKH5JpizI_Pc-91" value="" style="rounded=1;whiteSpace=wrap;html=1;" vertex="1" parent="1">
          <mxGeometry x="417" y="270" width="120" height="60" as="geometry" />
        </mxCell>
        <mxCell id="BK7y1zI5hKH5JpizI_Pc-92" value="&lt;font style=&quot;font-size: 29px&quot;&gt;SenBk&lt;/font&gt;" style="text;html=1;resizable=0;autosize=1;align=center;verticalAlign=middle;points=[];fillColor=none;strokeColor=none;rounded=0;fontSize=29;" vertex="1" parent="1">
          <mxGeometry x="427" y="280" width="100" height="40" as="geometry" />
        </mxCell>
        <mxCell id="BK7y1zI5hKH5JpizI_Pc-93" value="..." style="text;html=1;align=center;verticalAlign=middle;resizable=0;points=[];autosize=1;fontSize=34;" vertex="1" parent="1">
          <mxGeometry x="457" y="212" width="40" height="50" as="geometry" />
        </mxCell>
        <mxCell id="BK7y1zI5hKH5JpizI_Pc-101" value="" style="rounded=0;whiteSpace=wrap;html=1;sketch=0;" vertex="1" parent="1">
          <mxGeometry x="640" y="50" width="480" height="303" as="geometry" />
        </mxCell>
        <mxCell id="BK7y1zI5hKH5JpizI_Pc-102" value="Label&amp;nbsp;&lt;span&gt;related&lt;/span&gt;" style="text;html=1;align=center;verticalAlign=middle;resizable=0;points=[];autosize=1;fontSize=19;" vertex="1" parent="1">
          <mxGeometry x="655" y="-20" width="130" height="30" as="geometry" />
        </mxCell>
        <mxCell id="BK7y1zI5hKH5JpizI_Pc-103" value="Label&amp;nbsp;independent" style="text;html=1;align=center;verticalAlign=middle;resizable=0;points=[];autosize=1;fontSize=19;" vertex="1" parent="1">
          <mxGeometry x="885" y="-20" width="170" height="30" as="geometry" />
        </mxCell>
        <mxCell id="BK7y1zI5hKH5JpizI_Pc-104" value="Confidence" style="text;html=1;align=center;verticalAlign=middle;resizable=0;points=[];autosize=1;fontSize=19;" vertex="1" parent="1">
          <mxGeometry x="665" y="15" width="110" height="30" as="geometry" />
        </mxCell>
        <mxCell id="BK7y1zI5hKH5JpizI_Pc-105" value="BertLM" style="text;html=1;align=center;verticalAlign=middle;resizable=0;points=[];autosize=1;fontSize=19;" vertex="1" parent="1">
          <mxGeometry x="845" y="15" width="80" height="30" as="geometry" />
        </mxCell>
        <mxCell id="BK7y1zI5hKH5JpizI_Pc-106" value="PCFG" style="text;html=1;align=center;verticalAlign=middle;resizable=0;points=[];autosize=1;fontSize=19;" vertex="1" parent="1">
          <mxGeometry x="1015" y="15" width="70" height="30" as="geometry" />
        </mxCell>
        <mxCell id="BK7y1zI5hKH5JpizI_Pc-107" value="&lt;font style=&quot;font-size: 29px&quot;&gt;Scorex1&lt;/font&gt;" style="rounded=0;whiteSpace=wrap;html=1;sketch=0;" vertex="1" parent="1">
          <mxGeometry x="655" y="81" width="120" height="60" as="geometry" />
        </mxCell>
        <mxCell id="BK7y1zI5hKH5JpizI_Pc-108" value="&lt;font style=&quot;font-size: 29px&quot;&gt;Scorex2&lt;/font&gt;" style="rounded=0;whiteSpace=wrap;html=1;sketch=0;" vertex="1" parent="1">
          <mxGeometry x="655" y="161.5" width="120" height="60" as="geometry" />
        </mxCell>
        <mxCell id="BK7y1zI5hKH5JpizI_Pc-109" value="&lt;font style=&quot;font-size: 29px&quot;&gt;Scorexk&lt;/font&gt;" style="rounded=0;whiteSpace=wrap;html=1;sketch=0;" vertex="1" parent="1">
          <mxGeometry x="655" y="271" width="120" height="60" as="geometry" />
        </mxCell>
        <mxCell id="BK7y1zI5hKH5JpizI_Pc-110" value="..." style="text;html=1;align=center;verticalAlign=middle;resizable=0;points=[];autosize=1;fontSize=34;" vertex="1" parent="1">
          <mxGeometry x="710" y="211.5" width="40" height="50" as="geometry" />
        </mxCell>
        <mxCell id="BK7y1zI5hKH5JpizI_Pc-111" value="&lt;font style=&quot;font-size: 29px&quot;&gt;Scorey1&lt;/font&gt;" style="rounded=0;whiteSpace=wrap;html=1;sketch=0;" vertex="1" parent="1">
          <mxGeometry x="820" y="81" width="120" height="60" as="geometry" />
        </mxCell>
        <mxCell id="BK7y1zI5hKH5JpizI_Pc-112" value="&lt;font style=&quot;font-size: 29px&quot;&gt;Scorey2&lt;/font&gt;" style="rounded=0;whiteSpace=wrap;html=1;sketch=0;" vertex="1" parent="1">
          <mxGeometry x="820" y="161.5" width="120" height="60" as="geometry" />
        </mxCell>
        <mxCell id="BK7y1zI5hKH5JpizI_Pc-113" value="&lt;font style=&quot;font-size: 29px&quot;&gt;Scoreyk&lt;/font&gt;" style="rounded=0;whiteSpace=wrap;html=1;sketch=0;" vertex="1" parent="1">
          <mxGeometry x="820" y="271" width="120" height="60" as="geometry" />
        </mxCell>
        <mxCell id="BK7y1zI5hKH5JpizI_Pc-114" value="..." style="text;html=1;align=center;verticalAlign=middle;resizable=0;points=[];autosize=1;fontSize=34;" vertex="1" parent="1">
          <mxGeometry x="875" y="211.5" width="40" height="50" as="geometry" />
        </mxCell>
        <mxCell id="BK7y1zI5hKH5JpizI_Pc-115" value="&lt;font style=&quot;font-size: 29px&quot;&gt;Scorez1&lt;/font&gt;" style="rounded=0;whiteSpace=wrap;html=1;sketch=0;" vertex="1" parent="1">
          <mxGeometry x="980" y="81" width="120" height="60" as="geometry" />
        </mxCell>
        <mxCell id="BK7y1zI5hKH5JpizI_Pc-116" value="&lt;font style=&quot;font-size: 29px&quot;&gt;Scorez2&lt;/font&gt;" style="rounded=0;whiteSpace=wrap;html=1;sketch=0;" vertex="1" parent="1">
          <mxGeometry x="980" y="161.5" width="120" height="60" as="geometry" />
        </mxCell>
        <mxCell id="BK7y1zI5hKH5JpizI_Pc-117" value="&lt;font style=&quot;font-size: 29px&quot;&gt;Scorezk&lt;/font&gt;" style="rounded=0;whiteSpace=wrap;html=1;sketch=0;" vertex="1" parent="1">
          <mxGeometry x="980" y="271" width="120" height="60" as="geometry" />
        </mxCell>
        <mxCell id="BK7y1zI5hKH5JpizI_Pc-118" value="..." style="text;html=1;align=center;verticalAlign=middle;resizable=0;points=[];autosize=1;fontSize=34;" vertex="1" parent="1">
          <mxGeometry x="1035" y="211.5" width="40" height="50" as="geometry" />
        </mxCell>
        <mxCell id="BK7y1zI5hKH5JpizI_Pc-121" value="" style="rounded=0;whiteSpace=wrap;html=1;sketch=0;" vertex="1" parent="1">
          <mxGeometry x="396" y="510" width="160" height="305" as="geometry" />
        </mxCell>
        <mxCell id="BK7y1zI5hKH5JpizI_Pc-122" value="" style="rounded=1;whiteSpace=wrap;html=1;" vertex="1" parent="1">
          <mxGeometry x="416" y="622" width="120" height="60" as="geometry" />
        </mxCell>
        <mxCell id="BK7y1zI5hKH5JpizI_Pc-123" value="&lt;font style=&quot;font-size: 29px&quot;&gt;SenC2&lt;/font&gt;" style="text;html=1;resizable=0;autosize=1;align=center;verticalAlign=middle;points=[];fillColor=none;strokeColor=none;rounded=0;fontSize=29;" vertex="1" parent="1">
          <mxGeometry x="426" y="632" width="100" height="40" as="geometry" />
        </mxCell>
        <mxCell id="BK7y1zI5hKH5JpizI_Pc-124" value="" style="rounded=1;whiteSpace=wrap;html=1;" vertex="1" parent="1">
          <mxGeometry x="416" y="540" width="120" height="60" as="geometry" />
        </mxCell>
        <mxCell id="BK7y1zI5hKH5JpizI_Pc-125" value="&lt;font style=&quot;font-size: 29px&quot;&gt;SenC1&lt;/font&gt;" style="text;html=1;resizable=0;autosize=1;align=center;verticalAlign=middle;points=[];fillColor=none;strokeColor=none;rounded=0;fontSize=29;" vertex="1" parent="1">
          <mxGeometry x="426" y="550" width="100" height="40" as="geometry" />
        </mxCell>
        <mxCell id="BK7y1zI5hKH5JpizI_Pc-126" value="" style="rounded=1;whiteSpace=wrap;html=1;" vertex="1" parent="1">
          <mxGeometry x="416" y="730" width="120" height="60" as="geometry" />
        </mxCell>
        <mxCell id="BK7y1zI5hKH5JpizI_Pc-127" value="&lt;font style=&quot;font-size: 29px&quot;&gt;SenCn&lt;/font&gt;" style="text;html=1;resizable=0;autosize=1;align=center;verticalAlign=middle;points=[];fillColor=none;strokeColor=none;rounded=0;fontSize=29;" vertex="1" parent="1">
          <mxGeometry x="426" y="740" width="100" height="40" as="geometry" />
        </mxCell>
        <mxCell id="BK7y1zI5hKH5JpizI_Pc-128" value="..." style="text;html=1;align=center;verticalAlign=middle;resizable=0;points=[];autosize=1;fontSize=34;" vertex="1" parent="1">
          <mxGeometry x="456" y="672" width="40" height="50" as="geometry" />
        </mxCell>
      </root>
    </mxGraphModel>
  </diagram>
</mxfile>
